<svg width="210" height="210" xmlns="http://www.w3.org/2000/svg">
    <g id="svg_1">
        <ellipse stroke-width="0" stroke="#000" ry="104.99995" rx="104.74995" id="svg_12" cy="104.99989" cx="104.74999" fill="#fff"/>
        <g id="svg_2" transform="translate(0 2326) scale(0.1 -0.1)" fill="#000000">
            <path id="svg_3" d="m940,23114.49976c-115,-125 -270,-279 -280,-279c-5,0 -9,-6 -9,-13c0,-15 -166,-187 -339,-349c-85,-80 -122,-122 -118,-132c3,-8 1,-18 -5,-22c-7,-5 -8,-2 -3,5c18,30 -44,-22 -88,-74l-48,-55l76,-75c41,-42 75,-82 75,-89c0,-7 21,-30 46,-52c48,-41 364,-353 498,-492c43,-45 89,-85 102,-88c13,-4 24,-11 24,-16c0,-6 37,-51 82,-100l81,-89l76,75c42,42 86,83 99,92c12,8 22,19 22,24c0,5 27,34 59,65c33,31 70,72 83,91c13,19 28,34 33,34c6,0 58,48 117,108c59,59 191,190 293,292c102,102 180,187 174,189c-6,2 -25,-7 -44,-20c-43,-32 -416,-398 -578,-569c-141,-150 -142,-150 -204,-202c-24,-21 -43,-40 -43,-43c1,-20 -2,-24 -17,-29c-10,-3 -30,-17 -46,-31c-25,-24 -28,-24 -34,-8c-3,10 -20,31 -37,47c-112,104 -159,149 -146,141c17,-10 -356,364 -445,445c-33,30 -59,59 -57,63c1,5 -2,6 -7,3c-8,-6 -23,17 -25,39c-1,6 -6,10 -13,10c-14,0 -83,70 -83,85c0,5 -4,9 -9,7c-4,-1 -32,20 -60,47l-52,48l25,27c13,14 37,40 53,56c15,17 40,39 54,50c14,11 38,39 52,62c28,44 47,61 47,43c0,-7 15,5 33,27c35,41 160,166 171,171c3,1 9,2 14,2c4,0 1,4 -7,9c-7,5 -10,14 -6,20c5,9 10,9 20,1c9,-8 15,-8 20,0c3,5 3,10 0,10c-4,0 20,26 53,58c33,31 65,67 71,80c7,12 16,20 21,17c5,-3 18,14 28,38c11,25 25,48 32,52c7,4 5,-6 -5,-25c-20,-39 -15,-46 14,-23c19,16 27,33 30,66c1,5 5,6 9,3c5,-3 26,11 47,31c29,27 34,37 24,44c-11,7 -9,13 11,28c15,12 27,16 31,10c3,-6 20,9 37,33c34,47 62,78 71,78c3,0 17,-16 31,-35c14,-19 31,-35 38,-35c7,0 11,-4 7,-9c-3,-5 0,-13 6,-17c8,-4 9,-3 5,4c-16,27 13,7 74,-48c35,-33 59,-60 52,-60c-7,0 -15,7 -18,15c-4,8 -11,15 -17,15c-19,0 76,-91 110,-105c17,-7 34,-23 38,-34c3,-12 13,-21 22,-21c8,0 13,-6 10,-13c-3,-8 5,-14 21,-15c26,-2 26,-1 -13,38c-22,23 -57,52 -77,66c-21,13 -38,29 -38,36c0,11 -249,258 -261,258c-3,0 -43,-41 -90,-91z"/>
            <path id="svg_4" d="m1431,22778.49976c0,-14 54,-55 58,-44c2,6 8,9 13,5c5,-3 9,-3 9,0c0,3 -18,14 -40,25c-22,10 -40,17 -40,14z"/>
            <path id="svg_5" d="m1526,22705.49976c-3,-5 1,-13 10,-16c22,-9 29,1 11,15c-10,8 -16,9 -21,1z"/>
            <path id="svg_6" d="m1571,22665.49976c0,-5 7,-10 15,-10c8,0 15,5 15,10c0,6 -7,10 -15,10c-8,0 -15,-4 -15,-10z"/>
            <path id="svg_7" d="m1653,22570.49976c1,-10 13,-24 26,-33c20,-13 22,-13 22,7c0,11 -5,21 -11,21c-5,0 -7,-4 -4,-10c3,-5 1,-10 -4,-10c-6,0 -11,6 -11,14c0,8 -5,18 -11,22c-7,4 -10,0 -7,-11z"/>
            <path id="svg_8" d="m754,22469.49976c-18,-19 -33,-42 -33,-50c0,-8 -20,-39 -44,-68c-50,-62 -86,-148 -86,-207c0,-74 58,-152 115,-154c11,-1 26,-5 32,-8c7,-4 32,-2 57,4l44,11l51,-53c28,-29 54,-49 58,-45c4,4 3,10 -2,14c-15,10 -85,116 -85,127c0,6 4,3 9,-4c8,-12 12,-10 22,12c7,15 17,27 22,27c5,0 3,-8 -4,-17c-13,-16 -12,-17 3,-4c10,7 16,17 13,21c-5,7 41,55 53,55c4,0 6,4 4,9c-1,4 4,19 12,32c36,54 -46,250 -126,300c-61,39 -76,38 -115,-2zm121,-35c42,-33 33,-53 -10,-24c-25,17 -45,23 -63,19l-26,-5l25,15c33,20 43,20 74,-5zm34,-91c36,-28 42,-38 48,-84c7,-58 0,-87 -27,-123c-10,-13 -16,-28 -12,-34c3,-6 1,-7 -6,-3c-6,4 -24,-2 -40,-13c-16,-12 -33,-21 -39,-21c-19,0 -74,141 -80,205c-5,68 0,75 67,96c41,12 45,11 89,-23zm-194,-112c9,-30 32,-82 51,-117c42,-73 37,-82 -38,-76c-55,5 -83,27 -91,71c-6,31 13,126 25,126c4,0 10,11 13,25c10,39 23,30 40,-29z"/>
            <path id="svg_9" d="m1746,22485.49976c3,-5 13,-10 21,-10c8,0 12,5 9,10c-3,6 -13,10 -21,10c-8,0 -12,-4 -9,-10z"/>
            <path id="svg_10" d="m1116,22421.49976c-5,-2 -22,-7 -37,-10c-15,-3 -33,-13 -42,-21c-22,-22 6,-75 40,-75c25,0 33,15 12,23c-16,5 -9,14 16,19c17,3 18,-4 17,-97c-1,-88 -4,-102 -22,-117c-12,-10 -28,-18 -35,-18c-8,0 -19,-10 -25,-23c-15,-33 21,-90 77,-123c44,-26 44,-26 96,-9c61,19 194,105 190,123c-1,7 5,12 13,12c27,0 75,89 75,137c0,82 -41,128 -140,157c-52,16 -213,30 -235,22zm224,-78c74,-14 100,-27 115,-57c35,-70 -67,-198 -197,-246c-42,-16 -54,-17 -85,-5c-19,7 -45,21 -55,31c-11,10 -23,16 -28,14c-14,-10 3,34 21,50c17,15 19,15 26,-7c4,-13 14,-33 22,-46c23,-35 31,-9 17,51c-13,59 1,193 23,220c14,16 33,16 141,-5z"/>
            <path id="svg_11" d="m1851,22366.49976c19,-16 37,-27 40,-24c6,6 -51,53 -65,53c-5,0 6,-13 25,-29z"/>
        </g>
        <path id="svg_13" d="m162.68747,100.58031l0.56913,0l0.17587,-0.54067l0.17587,0.54067l0.56913,0l-0.46044,0.33415l0.17588,0.54067l-0.46044,-0.33416l-0.46044,0.33416l0.17588,-0.54067l-0.46044,-0.33415z" stroke-width="0" stroke="#000" fill="#fff"/>
        <path id="svg_14" d="m223.87994,93.11782l0.19099,0l0.05902,-0.54067l0.05902,0.54067l0.19099,0l-0.15451,0.33415l0.05902,0.54067l-0.15451,-0.33416l-0.15451,0.33416l0.05902,-0.54067l-0.15451,-0.33415z" stroke-width="0" stroke="#000" fill="#fff"/>
    </g>

</svg>